<?xml version="1.0" encoding="utf-8"?>

<!DOCTYPE svg PUBLIC "-//W3C//DTD SVG 1.1//EN" "http://www.w3.org/Graphics/SVG/1.1/DTD/svg11.dtd">
<!-- Uploaded to: SVG Repo, www.svgrepo.com, Generator: SVG Repo Mixer Tools -->
<svg height="800px" width="800px" version="1.1" id="_x32_" xmlns="http://www.w3.org/2000/svg" xmlns:xlink="http://www.w3.org/1999/xlink" 
	 viewBox="0 0 512 512"  xml:space="preserve">
<style type="text/css">
	.st0{fill:#000000;}
</style>
<g>
	<path class="st0" d="M0,180.942l52.247,52.248c112.324-112.334,295.181-112.334,407.505,0L512,180.942
		C370.839,39.763,141.16,39.763,0,180.942z"/>
	<path class="st0" d="M67.904,248.857l52.248,52.247c74.926-74.926,196.768-74.926,271.695,0l52.247-52.247
		C340.388,145.16,171.612,145.16,67.904,248.857z"/>
	<path class="st0" d="M135.828,316.781l52.248,52.238c37.454-37.454,98.393-37.454,135.848,0l52.247-52.238
		C309.919,250.538,202.081,250.538,135.828,316.781z"/>
	<path class="st0" d="M203.752,384.695L256,436.942l52.247-52.247C279.41,355.858,232.589,355.858,203.752,384.695z"/>
</g>
</svg>